<?xml version="1.0" standalone="no"?>
<!DOCTYPE svg PUBLIC "-//W3C//DTD SVG 20010904//EN"
 "http://www.w3.org/TR/2001/REC-SVG-20010904/DTD/svg10.dtd">
<svg version="1.0" xmlns="http://www.w3.org/2000/svg"
 width="1409.000000pt" height="1157.000000pt" viewBox="0 0 1409.000000 1157.000000"
 preserveAspectRatio="xMidYMid meet">

<g transform="translate(0.000000,1157.000000) scale(0.100000,-0.100000)"
fill="#000000" stroke="none">
<path d="M6745 11484 c-879 -53 -1698 -286 -2446 -697 -1587 -872 -2668 -2438
-2914 -4221 -43 -317 -50 -417 -50 -796 0 -368 6 -459 46 -765 152 -1157 681
-2280 1472 -3120 505 -537 1012 -917 1647 -1234 630 -314 1253 -494 1980 -573
297 -32 843 -32 1140 0 113 12 246 29 295 37 167 28 161 24 117 71 -51 54 -56
63 -43 78 10 12 21 4 67 -45 41 -45 53 -53 48 -35 -4 17 0 30 15 45 27 27 43
26 102 -6 36 -19 46 -29 37 -36 -9 -6 -8 -7 5 -3 10 3 28 6 40 6 l20 0 -20 23
c-36 40 -46 78 -29 118 30 71 108 91 165 43 17 -14 29 -30 26 -34 -3 -5 -1
-11 5 -15 13 -8 13 -65 -1 -65 -5 0 -8 -4 -5 -9 4 -5 0 -12 -6 -14 -7 -3 -4
-6 8 -6 23 -1 278 72 418 120 563 191 1108 478 1571 824 371 278 705 593 986
930 200 240 379 493 537 760 121 204 317 596 343 687 7 25 6 26 -11 16 -25
-16 -68 7 -77 40 -4 16 -8 20 -13 12 -4 -7 -9 1 -12 21 -10 65 41 128 105 129
35 0 38 -2 33 -22 -3 -13 -3 -17 0 -10 3 6 12 12 20 12 9 0 13 -4 9 -9 -3 -5
0 -13 6 -17 8 -4 9 -3 5 4 -4 7 -3 12 3 12 16 0 24 40 11 55 -7 8 -21 15 -31
15 -16 0 -25 12 -17 23 1 1 -4 12 -11 25 -7 12 -9 32 -5 44 l7 22 19 -24 c17
-21 22 -22 40 -11 17 10 22 10 29 0 4 -7 3 -21 -2 -30 -9 -18 -13 -46 -4 -37
10 10 67 178 110 323 106 362 164 659 207 1056 18 170 21 265 22 564 0 375
-10 535 -54 835 -144 980 -534 1896 -1138 2673 -107 138 -202 249 -187 219 10
-19 -19 -57 -54 -72 -29 -12 -42 -30 -22 -30 5 0 16 -12 26 -26 13 -20 14 -28
4 -40 -10 -12 -19 -7 -60 33 -27 26 -49 53 -49 60 0 7 -4 13 -8 13 -12 0 -42
56 -42 79 0 22 35 86 47 86 5 0 7 3 6 8 -2 4 6 7 16 7 11 0 22 4 25 8 7 12
-367 382 -504 499 -301 255 -596 459 -964 668 -74 42 -359 182 -461 227 -531
234 -1124 388 -1740 453 -142 15 -716 28 -860 19z m565 -244 c788 -43 1474
-221 2165 -561 544 -267 1076 -654 1498 -1088 95 -98 121 -120 135 -112 9 4
26 5 37 0 11 -4 15 -8 8 -8 -18 -1 -4 -72 20 -99 18 -19 22 -20 30 -7 11 20
27 10 27 -18 0 -18 -2 -19 -10 -7 -5 8 -10 10 -10 4 0 -6 34 -53 77 -105 124
-152 210 -269 334 -456 506 -755 817 -1668 890 -2608 15 -194 15 -630 -1 -815
-46 -566 -175 -1125 -374 -1621 -46 -113 -47 -128 -9 -129 7 0 37 -16 67 -35
30 -19 59 -35 64 -35 5 0 15 -7 22 -15 10 -12 10 -18 1 -29 -11 -13 -20 -10
-64 16 -29 17 -64 39 -78 49 -41 29 -95 12 -72 -23 3 -7 1 -8 -5 -4 -7 4 -12
2 -12 -3 0 -6 5 -11 12 -11 6 0 9 -3 5 -6 -6 -7 -2 -12 56 -75 36 -39 37 -43
22 -58 -15 -15 -18 -13 -46 19 -17 19 -39 48 -49 64 -16 25 -20 27 -26 13 -3
-9 3 -29 15 -46 41 -57 17 -141 -46 -162 -40 -13 -40 -19 -7 -58 14 -17 23
-35 19 -41 -7 -12 -35 -14 -35 -2 0 4 -13 21 -30 38 -16 18 -28 33 -27 35 1 3
-4 -2 -10 -10 -10 -11 -10 -18 -1 -28 9 -11 7 -18 -6 -31 -16 -16 -17 -16 -10
3 9 26 -40 -48 -96 -145 -626 -1085 -1619 -1930 -2797 -2380 -66 -25 -110 -47
-106 -53 4 -6 0 -8 -11 -4 -11 4 -15 3 -10 -4 4 -6 0 -15 -7 -20 -20 -12 -57
-11 -61 2 -3 8 -13 7 -33 -4 -17 -9 -24 -16 -17 -17 14 0 17 -40 2 -40 -6 0
-9 -3 -9 -8 5 -32 -19 -58 -68 -71 -42 -12 -83 5 -109 44 -18 28 -27 29 -67
12 l-29 -12 36 -45 c26 -33 32 -48 24 -57 -7 -9 -7 -13 1 -13 6 0 11 5 11 10
0 6 6 10 13 9 6 -1 20 1 31 6 32 14 39 -17 8 -37 -29 -19 -57 -24 -47 -8 3 5
0 7 -7 5 -8 -3 -24 10 -38 34 -14 21 -28 37 -32 34 -5 -2 -8 0 -8 6 0 6 -15
17 -33 26 -31 14 -40 14 -118 -4 -986 -228 -2014 -186 -2949 121 -332 108
-605 225 -885 376 -733 396 -1326 906 -1821 1567 -301 402 -556 870 -737 1355
-466 1248 -456 2662 28 3895 232 591 534 1093 958 1592 38 45 67 84 66 87 -2
3 10 15 26 28 17 13 66 61 110 107 233 244 550 512 836 709 42 29 85 62 94 72
10 11 24 20 31 20 6 0 54 26 105 59 52 32 135 81 184 109 50 28 98 57 108 66
9 9 17 14 17 11 0 -12 126 59 153 86 21 21 38 29 65 29 50 0 67 13 64 47 -4
35 29 73 63 73 18 0 25 -5 25 -20 0 -13 -7 -20 -19 -20 -11 0 -26 -3 -35 -6
-14 -5 -14 -8 -1 -20 13 -13 23 -11 82 14 755 328 1625 486 2433 442z m-2840
-604 c0 -12 -13 -36 -19 -36 -4 0 -7 9 -8 20 -1 11 4 20 13 20 8 0 14 -2 14
-4z"/>
<path d="M6790 10364 c-401 -33 -599 -65 -908 -144 -658 -171 -1259 -483
-1807 -939 -113 -94 -436 -417 -536 -536 -603 -720 -964 -1566 -1066 -2502
-22 -199 -24 -729 -5 -908 76 -690 272 -1304 596 -1863 122 -211 332 -514 379
-547 30 -21 46 -19 40 5 -14 52 48 120 109 120 41 -1 77 -25 60 -42 -8 -8 -15
-8 -28 3 -14 11 -16 11 -10 1 7 -11 4 -12 -11 -4 -14 8 -27 7 -46 -3 -14 -7
-27 -11 -29 -10 -2 2 -4 -15 -3 -38 0 -66 27 -61 107 18 l66 66 -24 24 c-29
29 -31 58 -4 85 26 26 73 27 68 3 -3 -13 -12 -18 -33 -16 -17 0 -25 -1 -19 -3
6 -3 9 -15 7 -28 -9 -45 25 -40 79 12 47 45 49 49 32 62 -17 14 -18 13 -7 -1
12 -15 8 -29 -8 -29 -4 0 -17 14 -29 30 -18 25 -20 33 -9 46 11 13 17 11 46
-18 l33 -32 83 84 c45 46 75 78 66 72 -14 -11 -18 -9 -23 12 -7 28 8 76 24 76
5 0 10 6 10 13 0 13 27 30 60 40 8 2 27 0 42 -4 18 -5 31 -3 38 5 8 10 -4 29
-46 76 -51 57 -54 64 -40 78 14 15 19 12 51 -24 19 -21 35 -42 35 -46 0 -5 7
-8 15 -8 8 0 15 9 15 20 0 25 54 55 76 42 14 -8 12 -12 -11 -30 -15 -12 -32
-19 -39 -15 -6 3 -8 2 -3 -2 4 -5 0 -19 -9 -33 l-16 -25 23 19 c32 25 168 169
151 159 -21 -11 0 24 32 56 22 22 33 26 68 23 57 -5 89 -37 95 -98 4 -30 2
-46 -5 -46 -7 0 -9 -7 -5 -17 5 -12 3 -14 -7 -8 -60 37 176 -415 325 -620 14
-19 -3 -38 -315 -351 -285 -287 -329 -336 -336 -368 -11 -63 12 -96 138 -189
575 -425 1232 -706 1934 -827 307 -53 449 -64 789 -64 374 0 599 22 930 89
1098 223 2086 851 2768 1763 489 654 794 1441 882 2277 35 337 30 717 -15
1070 -97 756 -401 1511 -856 2123 -94 126 -127 149 -190 137 -35 -6 -132 -100
-947 -915 l-908 -908 -109 74 c-60 41 -112 74 -116 74 -4 0 -20 -11 -34 -25
-37 -35 -86 -41 -128 -15 -45 28 -58 74 -41 139 3 10 -31 30 -108 65 l-113 51
0 115 0 115 919 919 c506 505 925 931 932 948 21 51 -2 101 -72 156 -109 85
-291 209 -420 286 -579 347 -1202 556 -1884 632 -131 14 -638 27 -745 18z
m695 -259 c725 -76 1365 -304 1966 -700 87 -58 159 -106 159 -108 0 -1 -349
-351 -775 -777 l-775 -775 2 430 c1 237 4 507 6 601 l3 171 77 5 c96 7 151 30
224 97 180 165 155 458 -50 590 -99 63 -55 61 -1267 61 -911 0 -1109 -3 -1153
-14 -178 -48 -297 -218 -278 -400 19 -189 179 -336 366 -336 l70 0 0 -822 c1
-650 3 -828 14 -846 20 -37 66 -62 115 -62 37 0 49 5 77 36 l34 35 2 827 3
827 245 5 c173 4 252 9 267 18 61 35 68 131 14 186 l-31 31 -423 5 c-461 5
-453 4 -493 65 -22 33 -21 104 1 138 43 66 -31 62 1153 65 715 1 1086 -1 1112
-8 55 -15 100 -69 100 -121 0 -52 -21 -92 -63 -118 -32 -20 -48 -21 -269 -21
l-235 0 -37 -32 c-46 -41 -56 -88 -31 -142 24 -49 59 -66 141 -66 l67 0 -5
-939 c-4 -720 -2 -946 7 -968 17 -39 41 -58 105 -82 64 -25 77 -26 61 -7 -20
24 10 38 37 16 20 -17 21 -19 5 -23 -15 -4 -15 -5 2 -6 11 0 28 -10 38 -21 20
-24 37 -26 37 -4 0 8 4 12 10 9 5 -3 7 0 4 9 -7 19 29 38 53 28 10 -4 55 -29
101 -56 74 -43 82 -50 69 -63 -13 -13 -24 -10 -93 32 -64 39 -82 46 -103 39
-41 -15 -34 -28 31 -62 213 -111 391 -234 576 -401 107 -96 115 -101 157 -101
59 0 110 43 120 100 8 49 -3 70 -76 145 l-59 60 839 839 839 839 104 -159 c58
-87 125 -195 150 -239 657 -1161 754 -2526 267 -3770 -358 -913 -1051 -1708
-1914 -2192 -895 -502 -1946 -674 -2955 -482 -562 106 -1088 321 -1584 647
l-159 104 259 259 258 259 126 -123 c282 -277 561 -459 932 -608 682 -273
1499 -242 2173 82 640 307 1186 892 1404 1504 55 154 59 167 85 275 44 186 57
288 63 515 7 294 -18 511 -93 809 -53 209 -175 538 -216 583 -68 73 -192 35
-205 -64 -4 -30 6 -65 50 -174 102 -253 171 -510 209 -784 16 -116 16 -495 -1
-600 -64 -412 -203 -742 -450 -1068 -69 -92 -288 -323 -386 -408 -300 -260
-706 -466 -1095 -553 -211 -47 -341 -58 -595 -53 -252 5 -353 18 -565 71 -363
90 -732 283 -1025 535 -73 63 -239 235 -300 311 -174 216 -321 474 -414 727
-13 35 -27 61 -31 58 -4 -2 -20 10 -36 28 -34 38 -42 88 -20 122 15 22 14 31
-4 107 -43 185 -55 303 -54 553 0 256 10 352 60 568 132 573 481 1109 942
1444 146 107 151 111 162 153 21 76 -35 150 -114 150 -44 0 -86 -24 -216 -123
-510 -391 -877 -962 -1014 -1579 -45 -202 -57 -305 -63 -538 -6 -230 3 -378
33 -547 l15 -87 -419 -419 -418 -418 -34 48 c-19 26 -64 93 -99 148 -566 883
-794 1894 -660 2931 163 1269 877 2397 1964 3101 148 96 421 245 556 303 533
230 975 340 1529 380 167 12 520 4 705 -15z m-3000 -6215 c13 -15 21 -17 31
-9 7 6 18 8 24 4 13 -8 13 -35 0 -35 -19 0 -10 -22 26 -66 37 -44 60 -54 82
-32 9 9 13 7 18 -7 5 -12 1 -22 -11 -31 -36 -26 -62 -16 -111 41 -26 30 -50
52 -54 50 -10 -6 -35 24 -26 32 3 3 -2 15 -11 26 -13 15 -15 21 -5 24 6 3 10
9 6 14 -10 17 13 9 31 -11z m-613 -561 c17 11 22 11 29 0 10 -16 -7 -39 -30
-40 -9 0 -11 -3 -4 -5 7 -3 9 -13 6 -22 -4 -14 -3 -15 6 -2 5 8 13 11 17 7 4
-4 0 -15 -9 -25 -13 -12 -20 -14 -25 -6 -4 7 -16 14 -27 16 -12 2 -19 11 -18
22 1 11 -5 25 -12 32 -7 8 -11 23 -8 34 6 21 6 21 30 -2 21 -19 27 -21 45 -9z
m-148 -44 c3 -9 -1 -18 -10 -22 -19 -7 -39 11 -30 26 10 16 33 13 40 -4z"/>
<path d="M7144 9180 c-37 -15 -64 -63 -64 -115 0 -40 5 -52 34 -81 28 -28 42
-34 75 -34 57 0 95 22 116 66 48 102 -55 207 -161 164z"/>
<path d="M6800 7282 c-110 -37 -201 -117 -252 -221 -31 -62 -33 -71 -33 -181
0 -110 2 -119 32 -181 43 -86 115 -159 200 -201 64 -31 73 -33 178 -33 103 0
114 2 178 32 322 153 325 605 4 763 -58 28 -79 33 -160 37 -71 2 -105 -1 -147
-15z m188 -237 c75 -32 112 -86 112 -165 0 -125 -100 -203 -220 -171 -107 29
-161 150 -111 249 23 45 46 66 91 86 45 20 82 20 128 1z"/>
<path d="M5945 7126 c-62 -27 -88 -114 -52 -169 58 -90 189 -76 218 23 30 99
-72 189 -166 146z"/>
<path d="M9142 6224 c-15 -6 -38 -23 -51 -37 -21 -23 -23 -33 -19 -83 4 -46
10 -62 32 -80 60 -52 152 -34 190 36 51 96 -52 207 -152 164z"/>
<path d="M5485 6186 c-48 -15 -112 -49 -140 -73 -36 -32 -151 -185 -207 -278
-186 -303 -301 -639 -339 -993 -22 -205 4 -625 43 -712 6 -14 10 -29 9 -34 -1
-6 0 -20 3 -31 4 -17 11 -21 29 -18 18 4 30 -3 46 -23 24 -31 20 -58 -13 -87
l-21 -18 29 -82 c38 -111 130 -302 200 -415 293 -472 752 -826 1271 -980 291
-87 644 -115 947 -76 765 98 1451 613 1765 1324 135 306 195 588 195 920 0
488 -143 933 -425 1327 -95 133 -150 188 -225 225 l-67 33 -569 2 c-431 2
-566 -1 -558 -9 31 -31 2 -104 -52 -133 -33 -18 -47 -35 -28 -35 4 0 16 -14
27 -30 l20 -30 541 0 c352 0 552 -4 571 -10 35 -13 105 -96 198 -239 290 -442
390 -974 284 -1506 -89 -448 -358 -884 -724 -1177 -268 -214 -571 -349 -930
-414 -124 -23 -485 -26 -610 -5 -453 74 -850 279 -1151 594 -217 227 -356 452
-460 743 -202 571 -128 1226 200 1759 72 117 160 228 192 241 27 11 162 14
738 14 387 0 711 3 720 6 12 5 7 16 -26 55 -34 41 -39 51 -28 64 7 8 17 15 23
15 6 0 8 -2 5 -5 -3 -3 19 -32 48 -63 29 -31 54 -60 54 -64 0 -5 6 -8 13 -8 8
0 11 14 11 40 -1 23 4 47 12 55 8 7 14 18 14 23 0 12 54 32 83 32 19 0 20 -5
14 -75 -7 -74 -7 -75 17 -75 16 0 27 7 31 20 3 11 13 20 21 20 17 0 19 -26 2
-33 -7 -3 9 -6 35 -6 l49 -1 -44 51 c-23 28 -50 62 -60 76 -19 29 -17 91 4
104 7 5 -382 8 -867 8 -682 0 -889 -3 -920 -13z"/>
<path d="M7299 6169 c-10 -27 -10 -36 2 -58 39 -70 153 -15 127 61 -9 26 -14
28 -63 28 -50 0 -53 -2 -66 -31z"/>
<path d="M7143 6050 c-7 -11 -13 -36 -13 -55 0 -34 1 -35 38 -35 24 0 32 3 24
9 -9 5 -13 23 -11 52 4 49 -17 65 -38 29z"/>
<path d="M6422 5420 c-184 -48 -343 -174 -425 -335 -51 -102 -72 -191 -72
-310 0 -200 71 -360 219 -495 201 -182 482 -220 736 -98 69 33 101 57 171 127
71 70 94 101 126 171 23 47 46 107 52 133 53 224 -9 456 -166 623 -159 169
-417 243 -641 184z m256 -235 c78 -19 131 -45 183 -92 95 -86 142 -192 141
-318 -1 -207 -133 -369 -333 -411 -141 -29 -271 9 -374 110 -71 70 -109 143
-124 237 -40 249 155 481 409 488 19 0 63 -6 98 -14z"/>
<path d="M7681 4374 c-163 -44 -283 -175 -312 -343 -30 -170 66 -360 223 -439
167 -85 357 -55 488 76 102 103 145 242 116 379 -19 90 -46 144 -107 208 -106
113 -263 158 -408 119z m201 -260 c106 -68 103 -235 -5 -299 -120 -70 -266 11
-267 148 0 144 153 229 272 151z"/>
<path d="M4874 3998 c3 -13 6 -26 6 -30 0 -5 5 -8 10 -8 17 0 11 47 -6 54 -13
5 -15 2 -10 -16z"/>
<path d="M4638 3889 c9 -28 18 -46 20 -40 5 14 -17 79 -28 86 -4 3 -1 -18 8
-46z"/>
<path d="M8317 7043 c-12 -11 -7 -58 8 -80 19 -27 48 -34 79 -18 18 10 26 10
29 2 3 -7 4 1 3 16 -2 23 -13 35 -52 58 -53 31 -57 32 -67 22z"/>
<path d="M4362 3725 c-7 -8 -9 -15 -4 -15 5 0 15 7 22 15 16 19 -1 19 -18 0z"/>
<path d="M4455 3707 c4 -12 15 -40 25 -62 l19 -40 -5 35 c-10 66 -14 78 -30
84 -12 5 -14 1 -9 -17z"/>
<path d="M12060 3470 c6 -11 13 -20 16 -20 2 0 0 9 -6 20 -6 11 -13 20 -16 20
-2 0 0 -9 6 -20z"/>
<path d="M4062 3437 c-37 -11 -75 -57 -63 -75 5 -8 23 5 56 38 27 28 47 50 45
49 -3 -1 -20 -6 -38 -12z"/>
<path d="M11967 3365 c-15 -31 -27 -58 -27 -60 0 -3 11 -5 23 -5 44 0 70 54
51 104 -10 26 -18 19 -47 -39z"/>
<path d="M8642 531 c-29 -10 -52 -21 -51 -27 5 -25 13 -33 40 -39 33 -7 79 16
79 40 0 7 10 16 23 18 21 4 21 4 -3 6 -20 1 -22 3 -10 11 24 16 -16 11 -78 -9z"/>
<path d="M8430 466 c0 -2 7 -6 15 -10 8 -3 15 -1 15 4 0 6 -7 10 -15 10 -8 0
-15 -2 -15 -4z"/>
<path d="M11246 9566 c-49 -45 -24 -116 40 -116 71 0 96 61 47 112 -33 34 -54
35 -87 4z"/>
<path d="M12283 3728 c-13 -6 -23 -16 -23 -22 0 -6 -4 -5 -9 3 -6 9 -8 1 -6
-25 3 -45 13 -74 27 -74 5 0 7 -3 5 -7 -3 -5 10 -8 29 -8 31 0 35 4 55 50 l21
49 -28 23 c-32 25 -39 26 -71 11z"/>
<path d="M8316 335 c-20 -31 -20 -50 0 -84 13 -23 21 -26 55 -23 62 6 88 60
53 110 -22 32 -86 31 -108 -3z"/>
<path d="M8139 196 c-7 -6 -15 -19 -17 -28 -2 -15 3 -17 30 -11 18 3 44 11 58
16 25 11 25 11 2 15 -12 2 -20 6 -18 10 7 12 -39 10 -55 -2z"/>
</g>
</svg>
